<?xml version="1.0" encoding="UTF-8"?>
<!DOCTYPE svg PUBLIC "-//W3C//DTD SVG 1.1//EN" "http://www.w3.org/Graphics/SVG/1.1/DTD/svg11.dtd">
<svg xmlns="http://www.w3.org/2000/svg" version="1.1" width="100px" height="100px" style="shape-rendering:geometricPrecision; text-rendering:geometricPrecision; image-rendering:optimizeQuality; fill-rule:evenodd; clip-rule:evenodd" xmlns:xlink="http://www.w3.org/1999/xlink">
<g><path style="opacity:0.988" fill="#f0f0f0" d="M 91.5,13.5 C 92.6408,32.1231 92.8075,50.7897 92,69.5C 90.8333,72 89,73.8333 86.5,75C 81.5111,75.4993 76.5111,75.6659 71.5,75.5C 71.665,78.8499 71.4983,82.1832 71,85.5C 70.5,87.3333 69.3333,88.5 67.5,89C 55.1712,89.4999 42.8378,89.6665 30.5,89.5C 29.5313,88.6906 28.6979,87.6906 28,86.5C 27.502,83.5184 27.3354,80.5184 27.5,77.5C 22.2164,75.7433 16.5498,74.7433 10.5,74.5C 8.82665,73.657 7.65999,72.3237 7,70.5C 6.33333,51.8333 6.33333,33.1667 7,14.5C 7.46524,13.0692 8.29857,11.9025 9.5,11C 35.4129,9.35204 61.4129,9.01871 87.5,10C 89.3237,10.66 90.657,11.8267 91.5,13.5 Z"/></g>
<g><path style="opacity:1" fill="#423b6f" d="M 13.5,14.5 C 37.169,14.3334 60.8357,14.5 84.5,15C 85.4162,15.3742 86.2496,15.8742 87,16.5C 87.6667,33.5 87.6667,50.5 87,67.5C 86.5,68.6667 85.6667,69.5 84.5,70C 76.8406,70.4997 69.1739,70.6664 61.5,70.5C 61.5,72.5 61.5,74.5 61.5,76.5C 63.1439,76.2865 64.6439,76.6198 66,77.5C 66.7581,79.7695 66.5914,81.9361 65.5,84C 54.8333,84.6667 44.1667,84.6667 33.5,84C 32.565,81.6194 32.2317,79.1194 32.5,76.5C 34.1667,76.5 35.8333,76.5 37.5,76.5C 37.5,74.5 37.5,72.5 37.5,70.5C 29.8261,70.6664 22.1594,70.4997 14.5,70C 13.3333,69.5 12.5,68.6667 12,67.5C 11.3333,50.5 11.3333,33.5 12,16.5C 12.7172,15.9558 13.2172,15.2891 13.5,14.5 Z"/></g>
<g><path style="opacity:0.318" fill="#020202" d="M 91.5,13.5 C 92.7899,14.0577 93.6232,15.0577 94,16.5C 94.6667,35.1667 94.6667,53.8333 94,72.5C 93.1667,74.6667 91.6667,76.1667 89.5,77C 84.1771,77.4994 78.8437,77.666 73.5,77.5C 73.6653,81.1817 73.4986,84.8484 73,88.5C 72.5,89.6667 71.6667,90.5 70.5,91C 57.8333,91.6667 45.1667,91.6667 32.5,91C 31.5842,90.7216 30.9175,90.2216 30.5,89.5C 42.8378,89.6665 55.1712,89.4999 67.5,89C 69.3333,88.5 70.5,87.3333 71,85.5C 71.4983,82.1832 71.665,78.8499 71.5,75.5C 76.5111,75.6659 81.5111,75.4993 86.5,75C 89,73.8333 90.8333,72 92,69.5C 92.8075,50.7897 92.6408,32.1231 91.5,13.5 Z"/></g>
<g><path style="opacity:1" fill="#d7ecfe" d="M 14.5,17.5 C 37.8333,17.5 61.1667,17.5 84.5,17.5C 84.5,33.1667 84.5,48.8333 84.5,64.5C 61.1667,64.5 37.8333,64.5 14.5,64.5C 14.5,48.8333 14.5,33.1667 14.5,17.5 Z"/></g>
<g><path style="opacity:1" fill="#727ec1" d="M 63.5,41.5 C 60.5937,36.1682 55.927,33.8348 49.5,34.5C 45.8773,34.2438 42.544,35.0771 39.5,37C 37.9632,38.1096 37.2965,39.6096 37.5,41.5C 33.9754,40.2411 30.9754,38.2411 28.5,35.5C 35.5414,30.647 42.8748,26.3136 50.5,22.5C 57.5421,26.1058 64.3754,30.1058 71,34.5C 70.7212,39.8271 70.5545,45.1605 70.5,50.5C 68.9928,51.7388 67.8261,51.4054 67,49.5C 67.2148,46.189 67.2148,42.8557 67,39.5C 65.8873,40.305 64.7206,40.9717 63.5,41.5 Z"/></g>
<g><path style="opacity:1" fill="#9ba3e6" d="M 63.5,41.5 C 62.5863,44.728 62.2529,48.0613 62.5,51.5C 54.1667,51.5 45.8333,51.5 37.5,51.5C 37.5,48.1667 37.5,44.8333 37.5,41.5C 37.2965,39.6096 37.9632,38.1096 39.5,37C 42.544,35.0771 45.8773,34.2438 49.5,34.5C 55.927,33.8348 60.5937,36.1682 63.5,41.5 Z"/></g>
<g><path style="opacity:1" fill="#70bfff" d="M 21.5,55.5 C 25.1667,55.5 28.8333,55.5 32.5,55.5C 32.5,57.5 32.5,59.5 32.5,61.5C 28.8333,61.5 25.1667,61.5 21.5,61.5C 21.5,59.5 21.5,57.5 21.5,55.5 Z"/></g>
<g><path style="opacity:1" fill="#70bfff" d="M 36.5,55.5 C 40.1667,55.5 43.8333,55.5 47.5,55.5C 47.5,57.5 47.5,59.5 47.5,61.5C 43.8333,61.5 40.1667,61.5 36.5,61.5C 36.5,59.5 36.5,57.5 36.5,55.5 Z"/></g>
<g><path style="opacity:1" fill="#70bfff" d="M 51.5,55.5 C 55.1667,55.5 58.8333,55.5 62.5,55.5C 62.5,57.5 62.5,59.5 62.5,61.5C 58.8333,61.5 55.1667,61.5 51.5,61.5C 51.5,59.5 51.5,57.5 51.5,55.5 Z"/></g>
<g><path style="opacity:1" fill="#70bfff" d="M 66.5,55.5 C 70.1667,55.5 73.8333,55.5 77.5,55.5C 77.5,57.5 77.5,59.5 77.5,61.5C 73.8333,61.5 70.1667,61.5 66.5,61.5C 66.5,59.5 66.5,57.5 66.5,55.5 Z"/></g>
<g><path style="opacity:1" fill="#6c77b9" d="M 40.5,70.5 C 46.5,70.5 52.5,70.5 58.5,70.5C 58.5,73.5 58.5,76.5 58.5,79.5C 60.288,79.2148 61.9547,79.5481 63.5,80.5C 54.1667,81.8333 44.8333,81.8333 35.5,80.5C 36.9905,79.7564 38.4905,79.0897 40,78.5C 40.4974,75.854 40.6641,73.1873 40.5,70.5 Z"/></g>
<g><path style="opacity:0.308" fill="#030303" d="M 10.5,74.5 C 16.5498,74.7433 22.2164,75.7433 27.5,77.5C 22.8215,77.6658 18.1548,77.4992 13.5,77C 12.0577,76.6232 11.0577,75.7899 10.5,74.5 Z"/></g>
</svg>
